<?xml version="1.0" encoding="UTF-8" standalone="no"?>
<!DOCTYPE svg PUBLIC "-//W3C//DTD SVG 1.1//EN" "http://www.w3.org/Graphics/SVG/1.1/DTD/svg11.dtd">
<svg version="1.1" xmlns="http://www.w3.org/2000/svg" xmlns:xlink="http://www.w3.org/1999/xlink" preserveAspectRatio="xMidYMid meet" viewBox="0 0 640 640" width="640" height="640"><defs><path d="M159.87 477.15C16.81 477.13 -99.31 324.59 -99.3 136.72C-99.28 -51.13 16.88 -203.64 159.93 -203.61C302.98 -203.59 419.11 -51.05 419.09 136.8C419.08 324.67 302.92 477.17 159.87 477.15Z" id="c2NTA4ns58"></path><path d="M245.66 459.12C245.69 459.64 245.74 460.16 245.81 460.65C239.62 463.22 235.45 470.54 236.04 478.77C236.04 478.77 236.04 478.77 236.04 478.77C236.73 488.62 243.97 496.08 252.2 495.41C255.96 495.11 285.88 492.68 289.62 492.38C297.87 491.72 303.97 483.18 303.28 473.33C303.28 473.33 303.28 473.33 303.28 473.33C302.67 464.73 297.09 457.96 290.21 456.81C288.95 447.54 283.37 440.67 277.21 441.18C275.86 441.28 274.58 441.74 273.41 442.48C270.09 436.47 265.1 432.78 259.78 433.21C251.03 433.93 244.7 445.52 245.66 459.12Z" id="eWDomGy1X"></path><path d="M465.39 405.74C361.44 414.15 270.66 330.32 262.78 218.65C254.91 106.99 332.9 9.5 436.85 1.09C540.79 -7.3 631.58 76.53 639.45 188.2C647.33 299.86 569.35 397.35 465.39 405.74Z" id="b14JkSDK9z"></path><path d="M126.14 639.4C91.33 642.22 62.38 634.55 61.5 622.28C60.63 610.01 88.2 597.78 123 594.96C157.81 592.15 186.78 599.82 187.65 612.07C188.51 624.34 160.95 636.59 126.14 639.4Z" id="d4VBYKD2v"></path><path d="M552.47 420.05C527.03 429.05 498.08 409.46 487.86 376.32C477.64 343.2 489.99 309.01 515.43 300C540.87 291 569.82 310.59 580.04 343.71C590.25 376.85 577.91 411.04 552.47 420.05Z" id="dgqPCwbfz"></path><path d="M393.18 525.93C333.51 530.75 281.65 486.25 277.46 426.62C273.25 366.98 318.28 314.66 377.94 309.84C437.61 305.02 489.46 349.51 493.66 409.15C497.87 468.78 452.85 521.1 393.18 525.93Z" id="b2J9UwU0D7"></path><path d="M498.54 384.77L502.88 402.75L496.43 404.54L492.07 386.56L498.54 384.77Z" id="fhcPIVwaq"></path><path d="M486.46 380.55C518.27 425.35 484.17 510.53 410.35 570.65C336.53 630.76 250.78 643.19 218.96 598.38C187.15 553.59 221.25 468.42 295.07 408.3C368.89 348.19 454.64 335.76 486.46 380.55Z" id="a6bdlOntdA"></path><path d="M223.59 602.63C179.59 602.62 143.86 550.18 143.87 485.58C143.87 420.99 179.61 368.56 223.61 368.56C267.62 368.57 303.34 421.01 303.33 485.6C303.32 550.2 267.6 602.64 223.59 602.63Z" id="a1j5mH5Zff"></path><path d="M280.66 341.21C281.19 343.01 281.73 344.83 282.29 346.57C274.65 357.2 274.67 384.08 283.26 413.1C283.26 413.1 283.26 413.1 283.26 413.1C293.54 447.86 312.24 472.54 325.01 468.2C330.8 466.25 377.21 450.5 383 448.52C395.77 444.19 397.78 412.5 387.5 377.72C387.5 377.72 387.5 377.72 387.5 377.72C378.53 347.4 363.18 324.76 350.93 322.35C340.25 289.79 324.81 266.8 315.27 270.04C313.16 270.75 311.51 272.69 310.31 275.59C299.34 255.09 287.8 243.23 279.53 246.03C265.97 250.63 266.46 293.25 280.66 341.21Z" id="a4mGlKrD7"></path><path d="M171.28 631.69C127.39 635.22 89.13 600.67 85.87 554.54C82.62 508.43 115.61 468.1 159.47 464.55C203.35 460.99 241.62 495.57 244.88 541.68C248.13 587.81 215.16 628.13 171.28 631.69Z" id="bbOqLvt9S"></path><path d="M60.99 356.82C31.65 351.67 12.05 323.46 17.24 293.88C22.41 264.29 50.43 244.46 79.76 249.61C109.07 254.76 128.69 282.97 123.5 312.56C118.32 342.14 90.3 361.97 60.99 356.82Z" id="a33Q9SfqWp"></path><path d="M34.86 267.5C-6.48 300.37 4.35 355.73 3.21 356.63C3.21 356.63 3.21 356.63 3.21 356.63C4.35 355.73 56.21 378.44 97.56 345.58C112.49 333.7 117.58 315.33 108.92 304.54C100.27 293.77 82.64 293.47 67.71 305.35C82.64 293.47 86.23 276.3 77.57 265.51C68.91 254.72 49.79 255.62 34.86 267.5Z" id="a87oDEUV8h"></path><path d="M56.71 266.92C48.31 237.48 68.01 215.89 67.78 215.08C67.78 215.08 67.78 215.08 67.78 215.08C68.01 215.89 96.06 223.55 104.47 252.98C107.51 263.61 104.63 273.8 98.03 275.72C91.44 277.64 83.94 271.65 80.89 261.02C83.94 271.65 80.74 280.76 74.16 282.68C67.56 284.62 59.76 277.55 56.71 266.92Z" id="a2GPlhWGIh"></path><path d="M143.49 418.22C98.57 431.6 54.43 415.99 44.98 383.41C35.52 350.82 64.31 313.51 109.24 300.14C154.16 286.76 198.3 302.37 207.76 334.96C217.21 367.54 188.41 404.85 143.49 418.22Z" id="a866Dm77ez"></path><path d="M66.95 435.43C57.98 449.43 45.41 456.9 38.89 452.1C32.39 447.31 34.4 432.06 43.37 418.07C52.36 404.07 64.93 396.6 71.43 401.4C77.94 406.19 75.94 421.44 66.95 435.43Z" id="dmJCd1Osm"></path><path d="M10.78 357.6C7.69 359.51 3.44 358.11 1.29 354.5C-0.87 350.87 -0.11 346.39 2.97 344.49C6.06 342.58 10.31 343.98 12.46 347.59C14.62 351.22 13.86 355.7 10.78 357.6Z" id="a5BCNHMw8"></path><path d="M96.84 447.78C77.62 461.06 57.55 464.45 52.06 455.33C46.56 446.22 57.7 428.03 76.93 414.74C96.16 401.45 116.22 398.05 121.72 407.17C127.22 416.3 116.07 434.49 96.84 447.78Z" id="a4heoJvoDp"></path><path d="M-68.36 88.92C-70.41 90.47 -72.84 90.68 -73.8 89.36C-74.75 88.06 -73.88 85.75 -71.85 84.2C-69.81 82.65 -67.38 82.45 -66.42 83.76C-65.47 85.06 -66.34 87.39 -68.36 88.92Z" id="aoFbn13fl"></path></defs><g><g><g><use xlink:href="#c2NTA4ns58" opacity="1" fill="#ffffff" fill-opacity="1"></use><g><use xlink:href="#c2NTA4ns58" opacity="1" fill-opacity="0" stroke="#000000" stroke-width="1" stroke-opacity="0"></use></g></g><g><use xlink:href="#eWDomGy1X" opacity="1" fill="#b16900" fill-opacity="1"></use><g><use xlink:href="#eWDomGy1X" opacity="1" fill-opacity="0" stroke="#000000" stroke-width="1" stroke-opacity="0"></use></g></g><g><use xlink:href="#b14JkSDK9z" opacity="1" fill="#b16900" fill-opacity="1"></use><g><use xlink:href="#b14JkSDK9z" opacity="1" fill-opacity="0" stroke="#000000" stroke-width="1" stroke-opacity="0"></use></g></g><g><use xlink:href="#d4VBYKD2v" opacity="1" fill="#b16900" fill-opacity="1"></use><g><use xlink:href="#d4VBYKD2v" opacity="1" fill-opacity="0" stroke="#000000" stroke-width="1" stroke-opacity="0"></use></g></g><g><use xlink:href="#dgqPCwbfz" opacity="1" fill="#ffffff" fill-opacity="1"></use><g><use xlink:href="#dgqPCwbfz" opacity="1" fill-opacity="0" stroke="#000000" stroke-width="1" stroke-opacity="0"></use></g></g><g><use xlink:href="#b2J9UwU0D7" opacity="1" fill="#b16900" fill-opacity="1"></use><g><use xlink:href="#b2J9UwU0D7" opacity="1" fill-opacity="0" stroke="#000000" stroke-width="1" stroke-opacity="0"></use></g></g><g><use xlink:href="#fhcPIVwaq" opacity="1" fill="#ffffff" fill-opacity="1"></use><g><use xlink:href="#fhcPIVwaq" opacity="1" fill-opacity="0" stroke="#000000" stroke-width="1" stroke-opacity="0"></use></g></g><g><use xlink:href="#a6bdlOntdA" opacity="1" fill="#b16900" fill-opacity="1"></use><g><use xlink:href="#a6bdlOntdA" opacity="1" fill-opacity="0" stroke="#000000" stroke-width="1" stroke-opacity="0"></use></g></g><g><use xlink:href="#a1j5mH5Zff" opacity="1" fill="#ffffff" fill-opacity="1"></use><g><use xlink:href="#a1j5mH5Zff" opacity="1" fill-opacity="0" stroke="#000000" stroke-width="1" stroke-opacity="0"></use></g></g><g><use xlink:href="#a4mGlKrD7" opacity="1" fill="#b16900" fill-opacity="1"></use><g><use xlink:href="#a4mGlKrD7" opacity="1" fill-opacity="0" stroke="#000000" stroke-width="1" stroke-opacity="0"></use></g></g><g><use xlink:href="#bbOqLvt9S" opacity="1" fill="#b16900" fill-opacity="1"></use><g><use xlink:href="#bbOqLvt9S" opacity="1" fill-opacity="0" stroke="#000000" stroke-width="1" stroke-opacity="0"></use></g></g><g><use xlink:href="#a33Q9SfqWp" opacity="1" fill="#b16900" fill-opacity="1"></use><g><use xlink:href="#a33Q9SfqWp" opacity="1" fill-opacity="0" stroke="#000000" stroke-width="1" stroke-opacity="0"></use></g></g><g><use xlink:href="#a87oDEUV8h" opacity="1" fill="#b16900" fill-opacity="1"></use><g><use xlink:href="#a87oDEUV8h" opacity="1" fill-opacity="0" stroke="#000000" stroke-width="1" stroke-opacity="0"></use></g></g><g><use xlink:href="#a2GPlhWGIh" opacity="1" fill="#b16900" fill-opacity="1"></use><g><use xlink:href="#a2GPlhWGIh" opacity="1" fill-opacity="0" stroke="#000000" stroke-width="1" stroke-opacity="0"></use></g></g><g><use xlink:href="#a866Dm77ez" opacity="1" fill="#ffffff" fill-opacity="1"></use><g><use xlink:href="#a866Dm77ez" opacity="1" fill-opacity="0" stroke="#000000" stroke-width="1" stroke-opacity="0"></use></g></g><g><use xlink:href="#dmJCd1Osm" opacity="1" fill="#b16900" fill-opacity="1"></use><g><use xlink:href="#dmJCd1Osm" opacity="1" fill-opacity="0" stroke="#000000" stroke-width="1" stroke-opacity="0"></use></g></g><g><use xlink:href="#a5BCNHMw8" opacity="1" fill="#b16900" fill-opacity="1"></use><g><use xlink:href="#a5BCNHMw8" opacity="1" fill-opacity="0" stroke="#000000" stroke-width="1" stroke-opacity="0"></use></g></g><g><use xlink:href="#a4heoJvoDp" opacity="1" fill="#b16900" fill-opacity="1"></use><g><use xlink:href="#a4heoJvoDp" opacity="1" fill-opacity="0" stroke="#000000" stroke-width="1" stroke-opacity="0"></use></g></g><g><use xlink:href="#aoFbn13fl" opacity="1" fill="#ffffff" fill-opacity="1"></use><g><use xlink:href="#aoFbn13fl" opacity="1" fill-opacity="0" stroke="#000000" stroke-width="1" stroke-opacity="0"></use></g></g></g></g></svg>