<?xml version="1.0" encoding="UTF-8" standalone="no"?>
<!DOCTYPE svg PUBLIC "-//W3C//DTD SVG 1.1//EN" "http://www.w3.org/Graphics/SVG/1.1/DTD/svg11.dtd">
<svg version="1.1" xmlns="http://www.w3.org/2000/svg" xmlns:xlink="http://www.w3.org/1999/xlink" preserveAspectRatio="xMidYMid meet" viewBox="0 0 640 640" width="2000" height="2000"><defs><path d="M420 232.96C420 339.54 349.44 426.07 262.53 426.07C175.62 426.07 105.06 339.54 105.06 232.96C105.06 126.39 175.62 39.86 262.53 39.86C349.44 39.86 420 126.39 420 232.96Z" id="batNqSZxc"></path><path d="M323.23 401.13C317.91 401.54 314.07 408.12 314.65 415.83C314.67 416.13 314.7 416.42 314.74 416.7C310.98 418.16 308.45 422.31 308.81 426.98C308.81 426.98 308.81 426.98 308.81 426.98C309.23 432.57 313.63 436.8 318.63 436.42C320.91 436.25 339.09 434.87 341.36 434.7C346.37 434.32 350.08 429.48 349.66 423.89C349.66 423.89 349.66 423.89 349.66 423.89C349.29 419.01 345.9 415.17 341.72 414.52C340.95 409.26 337.56 405.36 333.82 405.65C333 405.71 332.22 405.97 331.51 406.39C329.49 402.98 326.46 400.89 323.23 401.13Z" id="cptb7jGDy"></path><path d="M553.88 262.1C558.67 325.45 511.3 380.76 448.14 385.53C384.99 390.31 329.83 342.76 325.04 279.41C320.25 216.06 367.63 160.75 430.78 155.97C493.93 151.2 549.09 198.75 553.88 262.1Z" id="b12y4jzKeF"></path><path d="M279.42 502.61C279.94 509.57 263.2 516.52 242.05 518.12C220.9 519.72 203.31 515.37 202.78 508.41C202.25 501.45 219 494.51 240.14 492.91C261.29 491.31 278.89 495.66 279.42 502.61Z" id="d1ulBGja3s"></path><path d="M517.79 350.33C524 369.13 516.5 388.53 501.05 393.64C485.59 398.75 468 387.64 461.79 368.84C455.58 350.05 463.08 330.65 478.54 325.54C493.99 320.43 511.58 331.54 517.79 350.33Z" id="b6HxLMKq3O"></path><path d="M465.32 387.46C467.88 421.29 440.53 450.98 404.28 453.72C368.03 456.46 336.52 431.22 333.97 397.39C331.41 363.56 358.76 333.87 395.01 331.13C431.26 328.39 462.76 353.63 465.32 387.46Z" id="d18WWV7NqQ"></path><path d="M464.35 374.65L468.28 373.63L470.92 383.83L467 384.85L464.35 374.65Z" id="d1002s7ENu"></path><path d="M344.67 387C389.51 352.89 441.61 345.83 460.94 371.24C480.27 396.65 459.56 444.98 414.71 479.09C369.87 513.2 317.77 520.26 298.44 494.84C279.11 469.43 299.82 421.11 344.67 387Z" id="d6uwn6iVYW"></path><path d="M349.69 430.85C349.69 467.5 327.99 497.25 301.25 497.25C274.52 497.25 252.81 467.5 252.81 430.85C252.81 394.21 274.52 364.46 301.25 364.46C327.99 364.46 349.69 394.21 349.69 430.85Z" id="bbcMtUEiH"></path><path d="M335.22 294.94C326.98 297.55 327.28 321.73 335.91 348.94C336.23 349.96 336.56 350.99 336.9 351.98C332.26 358.01 332.27 373.26 337.49 389.72C337.49 389.72 337.49 389.72 337.49 389.72C343.74 409.44 355.1 423.44 362.86 420.98C366.38 419.87 394.57 410.93 398.09 409.81C405.85 407.35 407.07 389.37 400.82 369.64C400.82 369.64 400.82 369.64 400.82 369.64C395.37 352.44 386.04 339.6 378.6 338.23C372.11 319.76 362.73 306.72 356.93 308.56C355.65 308.96 354.65 310.06 353.92 311.71C347.25 300.08 340.24 293.35 335.22 294.94Z" id="anKSlafj1"></path><path d="M314.18 462.67C316.16 488.84 296.13 511.72 269.47 513.74C242.81 515.75 219.56 496.15 217.58 469.98C215.6 443.82 235.64 420.94 262.29 418.92C288.95 416.9 312.2 436.51 314.18 462.67Z" id="dy5HFPtR5"></path><path d="M240.43 332.7C237.28 349.48 220.26 360.73 202.45 357.81C184.63 354.89 172.72 338.89 175.87 322.11C179.01 305.32 196.03 294.07 213.85 296.99C231.66 299.91 243.58 315.91 240.43 332.7Z" id="a1iQ0r0yJz"></path><path d="M212.52 306.01C207.26 299.89 195.64 300.4 186.57 307.14C161.46 325.79 168.04 357.2 167.35 357.71C167.35 357.71 167.35 357.71 167.35 357.71C168.04 357.2 199.55 370.08 224.67 351.43C233.74 344.69 236.83 334.27 231.57 328.15C226.31 322.04 215.6 321.87 206.53 328.61C215.6 321.87 217.78 312.13 212.52 306.01Z" id="b3UVM8RYYq"></path><path d="M210.45 315.75C206.44 316.85 201.7 312.84 199.85 306.81C194.74 290.11 206.71 277.86 206.57 277.4C206.57 277.4 206.57 277.4 206.57 277.4C206.71 277.86 223.75 282.2 228.86 298.9C230.71 304.93 228.96 310.71 224.95 311.8C220.95 312.89 216.39 309.49 214.54 303.46C216.39 309.49 214.45 314.66 210.45 315.75Z" id="ernbnUHvP"></path><path d="M291.62 345.4C297.36 363.88 279.87 385.05 252.58 392.64C225.29 400.23 198.47 391.38 192.73 372.9C186.98 354.41 204.47 333.24 231.76 325.65C259.05 318.06 285.87 326.91 291.62 345.4Z" id="b3lrFZFfW"></path><path d="M208.8 383.1C212.75 385.82 211.54 394.47 206.08 402.41C200.63 410.35 192.99 414.59 189.03 411.87C185.08 409.15 186.3 400.5 191.75 392.56C197.21 384.62 204.85 380.38 208.8 383.1Z" id="f5PEjGQ7W3"></path><path d="M172.97 352.58C174.28 354.64 173.82 357.18 171.95 358.26C170.07 359.34 167.49 358.55 166.18 356.5C164.87 354.44 165.33 351.9 167.2 350.82C169.08 349.74 171.66 350.53 172.97 352.58Z" id="adhIDCGTD"></path><path d="M239.35 386.37C242.69 391.55 235.92 401.87 224.24 409.41C212.56 416.95 200.37 418.87 197.03 413.7C193.69 408.53 200.46 398.21 212.14 390.67C223.82 383.13 236.01 381.2 239.35 386.37Z" id="c4YzK3OCdb"></path><path d="M125.03 202.91C125.61 203.65 125.08 204.97 123.85 205.84C122.61 206.72 121.13 206.84 120.55 206.09C119.97 205.35 120.5 204.04 121.73 203.16C122.97 202.28 124.45 202.17 125.03 202.91Z" id="a2ZOLgX1KS"></path></defs><g><g><g><use xlink:href="#batNqSZxc" opacity="1" fill="#ffffff" fill-opacity="1"></use></g><g><use xlink:href="#cptb7jGDy" opacity="1" fill="#b16900" fill-opacity="1"></use></g><g><use xlink:href="#b12y4jzKeF" opacity="1" fill="#b16900" fill-opacity="1"></use></g><g><use xlink:href="#d1ulBGja3s" opacity="1" fill="#b16900" fill-opacity="1"></use></g><g><use xlink:href="#b6HxLMKq3O" opacity="1" fill="#ffffff" fill-opacity="1"></use></g><g><use xlink:href="#d18WWV7NqQ" opacity="1" fill="#b16900" fill-opacity="1"></use></g><g><use xlink:href="#d1002s7ENu" opacity="1" fill="#ffffff" fill-opacity="1"></use></g><g><use xlink:href="#d6uwn6iVYW" opacity="1" fill="#b16900" fill-opacity="1"></use></g><g><use xlink:href="#bbcMtUEiH" opacity="1" fill="#ffffff" fill-opacity="1"></use></g><g><use xlink:href="#anKSlafj1" opacity="1" fill="#b16900" fill-opacity="1"></use></g><g><use xlink:href="#dy5HFPtR5" opacity="1" fill="#b16900" fill-opacity="1"></use></g><g><use xlink:href="#a1iQ0r0yJz" opacity="1" fill="#b16900" fill-opacity="1"></use></g><g><use xlink:href="#b3UVM8RYYq" opacity="1" fill="#b16900" fill-opacity="1"></use></g><g><use xlink:href="#ernbnUHvP" opacity="1" fill="#b16900" fill-opacity="1"></use></g><g><use xlink:href="#b3lrFZFfW" opacity="1" fill="#ffffff" fill-opacity="1"></use></g><g><use xlink:href="#f5PEjGQ7W3" opacity="1" fill="#b16900" fill-opacity="1"></use></g><g><use xlink:href="#adhIDCGTD" opacity="1" fill="#b16900" fill-opacity="1"></use></g><g><use xlink:href="#c4YzK3OCdb" opacity="1" fill="#b16900" fill-opacity="1"></use></g><g><use xlink:href="#a2ZOLgX1KS" opacity="1" fill="#ffffff" fill-opacity="1"></use></g></g></g></svg>